<svg xmlns="http://www.w3.org/2000/svg" xmlns:xlink="http://www.w3.org/1999/xlink" width="385.79" height="286.16" viewBox="0 0 385.79 286.16"><defs><clipPath id="c"><path data-name="&lt;Clipping Path&gt;" d="M285.88 249.39c-6.44-4.39-19.82-9.23-26.92-11.3h-.12a37.16 37.16 0 0 0 1-23.33l-28.08-91.38c2.63-5.23 9.13-16.59 16.94-18.84 0 0-13.28-8.46-18.61 2.14 0 0 3.24-9.86 7.71-9.68 0 0-8-2-14.07.27L215.61 71a36 36 0 0 0-7.06-13.36l11-17.76c-2.55-1.27-18.11 5.19-22.55 8.66-1.4-.7-6.55-2.44-8.05-3 3.56-11.45-2.64-19.08-2.64-19.08a9.82 9.82 0 0 1-4.54 9.8c5.69-13.06-20.77-26-20.77-26a15.09 15.09 0 0 1-5.25 15c-8.78 7.43-5.19 13.92-5.19 13.92s-5.06-1.4-4.7-6.23c-4.54 5.44-2.14 10.17.15 13.44a71.23 71.23 0 0 0-8.59 4.22l-.4-.77c-6.67-5.49-18.65-7.36-20.31-5l9.65 17.25a35.89 35.89 0 0 0-4.93 14l-4.76 25c-6.53-1.69-14.19 2.74-14.19 2.74 4.26-1.35 10 7.31 10 7.31C104.55 102.34 94 114 94 114c8.13.12 14.78 10.12 17.47 14.82L94.08 220A37.07 37.07 0 0 0 96 237.62h-.1c-5.7 1.36-19.52 6.5-27.61 11.72-4 2.56-1.52 8.37 3.47 8.27l40-.78c.68.42 1.37.81 2.07 1.18v.5c.06 3.49-1 6.35-4.48 6.52-2.33.12-4.22 1.49-4.59 3.16-.7 3.22.88 5.82 4.08 6.05l12.62.75a10.62 10.62 0 0 0 9.78-5.11 10.92 10.92 0 0 0 1.32-3.58l.75-4h79.87l.52 3.09a10.67 10.67 0 0 0 6.45 8.13 8 8 0 0 0 3.34.6l13.75-.46c3.3-.33 4.51-2.35 4.17-5.53-.11-1-.94-3.67-3.67-3.82-2.36-.13-3.78-1.29-4.2-3.28a37 37 0 0 0 9.79-4.2l39.14.76c4.92.17 7.31-5.54 3.41-8.2z" fill="none"/></clipPath><linearGradient id="d" x1="178.67" y1="11.37" x2="178.67" y2="276.24" gradientUnits="userSpaceOnUse"><stop offset="0" stop-color="#ff8173"/><stop offset=".4" stop-color="#ffa17f"/><stop offset=".77" stop-color="#ffb987"/><stop offset="1" stop-color="#ffc18a"/></linearGradient><linearGradient id="a" x1="211.15" y1="39.33" x2="211.15" y2="56.39" gradientUnits="userSpaceOnUse"><stop offset="0" stop-color="gray"/><stop offset=".14" stop-color="#797979"/><stop offset=".35" stop-color="#646464"/><stop offset=".6" stop-color="#434343"/><stop offset=".89" stop-color="#141414"/><stop offset="1"/></linearGradient><linearGradient id="e" x1="116.73" y1="53.46" x2="132.38" y2="53.46" xlink:href="#a"/><clipPath id="f"><path d="M382.17 165.45s-.54 4.05-4 11.31c-4.69-14.77-13.63-29.53-25.24-38.32-.27-.21-.69-.49-1.25-.84a46 46 0 0 0-66.92 21.59l-1 2.4a60.46 60.46 0 0 1 14.41-7.76s-3 4.08-5.26 7.14c-7.05 9.43-11.68 22.37-8.1 34.26 1.12 3.72 3.95 7.34 7.53 10.62-18.16 3-31 21.55-31 21.55L244 247.88l25.35 5.29 14.45.51a102.8 102.8 0 0 0 29.8 4c36.3 0 61.85-23.81 67.22-49.38.43-2 .85-4 1.31-6 1.69-7.45 5.15-25.97.04-36.85z" fill="none"/></clipPath><linearGradient id="g" x1="318.99" y1="257.37" x2="318.99" y2="130.63" gradientUnits="userSpaceOnUse"><stop offset="0" stop-color="#ffc18a"/><stop offset=".23" stop-color="#ffb987"/><stop offset=".6" stop-color="#ffa17f"/><stop offset="1" stop-color="#ff8173"/></linearGradient><linearGradient id="b" x1="336.66" y1="186.47" x2="336.66" y2="130.04" gradientUnits="userSpaceOnUse"><stop offset="0" stop-color="#fff" stop-opacity="0"/><stop offset=".72" stop-color="#fff"/></linearGradient><linearGradient id="h" x1="224.37" y1="258.47" x2="224.37" y2="45.58" xlink:href="#b"/><clipPath id="i"><path data-name="&lt;Clipping Path&gt;" d="M187 82.7c-1.6 12.07 6.67 21 18.75 22.63s23.37-4.78 25-16.85A22 22 0 1 0 187 82.7z" fill="#fff" stroke="#31323d" stroke-linecap="round" stroke-miterlimit="10" stroke-width="1.497"/></clipPath><clipPath id="j"><path data-name="&lt;Clipping Path&gt;" d="M151.2 86.75c1.44 10.91-7 17.73-17.87 19.17s-20.21-3-21.65-13.94a19.93 19.93 0 1 1 39.52-5.23z" fill="#fff" stroke="#31323d" stroke-linecap="round" stroke-miterlimit="10" stroke-width="1.497"/></clipPath></defs><title>confused-kitty</title><g data-name="Layer 2"><g data-name="Layer 24" style="isolation:isolate"><ellipse cx="177.2" cy="258.84" rx="112.34" ry="17.3" fill="#fcc7ac"/><g clip-path="url(#c)"><path fill="url(#d)" d="M292.48 286.16H64.86V5.5h227.62v280.66z"/><path d="M219.53 39.88s-2.12-3.39-11.7 6.71l-5.05 6.06 7.13 3.74z" style="mix-blend-mode:multiply" opacity=".4" fill="url(#a)"/><path d="M116.73 44.83s-.29-1.3 6.32 1.41a18.5 18.5 0 0 1 7.11 5.27l2.22 2.68-5.64 8.22z" style="mix-blend-mode:multiply" opacity=".4" fill="url(#e)"/><path d="M133.33 264.21c-.83-2.19.48-8.5 3.1-21.14 1.56-7.56 2.82-12.49 3.59-15.72 5.81-24.24 2.42-26.88 7.48-41.32 3.47-9.86 7.06-19.63 16.62-24.25 1.15-.55 9.87-4.6 18.71-1C191.46 164.2 195 172.8 198.6 182c4.36 11.1 3 14.93 7.94 42.7q1.54 8.67 3.09 17.34c.61 3.39 1.19 6.79 1.8 10.18 1.4 8 1.44 8.11 1.4 8.42-1.45 11.73-72.83 21.02-79.5 3.57z" fill="#f7ebda"/><path d="M137.32 240.37l-6.14 29.56-4.18 4.17-6.61.88-11-1.11-3.64-.89-1.21-6.09 7.42-2.76 1.79-6.07-1.75-22.65s4 5.64 13.61 6.09 11.71-1.13 11.71-1.13zm99.03-2.84l-2.41 11-.29 13.17 8.07 5.17v6.5L225.89 275l-6.61-.88-4.19-4.17-6.15-29.56s5.15 4.86 14.71 3.7c9.88-1.22 12.7-6.56 12.7-6.56z" fill="#f7ebda"/><path d="M96 237.62s1.88 10 15.71 19.26l-40.94.79-4.1-3.15v-3.26l9-5.94zm164.44-5.04s-4.38 18.42-20 25.91l49.92.6v-12z" fill="#f7ebda"/></g><g clip-path="url(#f)"><path d="M382.17 165.45c9.19 24.73-2.8 107.52-94.35 89.34-25.26-5-34.58-4.07-34.58-4.07a47.23 47.23 0 0 1 10.42-26.8c10.23-12.36 27.67-19 27.67-19-20.87-19.48 5.94-48.63 6.85-51l-13.87 6.47c8.17-20.83 24.75-27.69 36.3-29.18s31.1-1.12 48.19 24.7 9.38 20.94 9.38 20.94z" fill="url(#g)"/><path d="M291.49 203.76a30.78 30.78 0 0 0-3.75.92c.54.56 5.34 15.56 20.83 17.8a1 1 0 0 0 1.1-1.42 12.83 12.83 0 0 1-.86-3.61" style="mix-blend-mode:multiply" fill="#7f7f7f" opacity=".2"/><path d="M350 179.84s-2.93 15.18-7.87 20.72a17.19 17.19 0 0 1-10.45 5.61.54.54 0 0 1-.6-.63 11 11 0 0 0-.33-4.24s-18.19 9.66-17 17.29c0 0-2.4-10.75 10.14-17.84s10.42-9.75 10.42-9.75l-.25 8.2c8.49-1.69 15.94-19.36 15.94-19.36z" style="mix-blend-mode:soft-light" fill="#150300"/><path d="M295.13 145.25S308.88 132 331 137a60.74 60.74 0 0 1 20.76 9.42c13.92 10 21.55 40.1 21.55 40.1l4.9-9.71s-10.12-30-28.9-40.57c-27.71-15.54-49 3.28-49 3.28z" style="mix-blend-mode:overlay" opacity=".5" fill="url(#b)"/></g><path d="M378.19 176.78c-4.69-14.78-13.62-29.55-25.25-38.34a13.91 13.91 0 0 0-1.24-.84 46 46 0 0 0-66.93 21.59c-.42 1-1 2.4-1 2.4a60.66 60.66 0 0 1 14.41-7.76l-5.25 7.14c-7.05 9.43-11.68 22.37-8.11 34.26 3.09 10.28 19.27 19.7 27.89 23.78a.69.69 0 0 0 1-.86c-1.46-3.21.94-9 2.84-11.68 2.39-3.34 6.32-5.13 9.91-7.1s7.28-4.62 8.35-8.58l-.76 8.63a30.64 30.64 0 0 0 13.37-13 29.71 29.71 0 0 0 2.82-7.58" fill="none" stroke="#31323d" stroke-linecap="round" stroke-linejoin="round" stroke-width="1.871"/><path d="M261.33 227.4s12-13.69 15.92-15.33c-16.2 16.55-3.16 25.47 4.21 27.65 29.87 8.83 77.2 18.17 97.42-23.1L367 234.91l-12.32 10.68-17.6 8.41-17.95 3.63-18.55-.63-12.76-2.21-5.65-7.6-23.33-9.14z" style="mix-blend-mode:soft-light" fill="#150300" opacity=".5"/><path d="M261.34 227.4s12.86-18.59 31-21.55" fill="none" stroke="#31323d" stroke-linecap="round" stroke-miterlimit="10" stroke-width="1.871"/><path d="M283.77 253.68a102.88 102.88 0 0 0 29.81 4c36.29 0 61.84-23.81 67.22-49.38.42-2 .85-4 1.31-6 1.72-7.43 5.18-25.95.07-36.83 0 0-.72 5.3-5.67 14.64" fill="none" stroke="#31323d" stroke-linecap="round" stroke-linejoin="round" stroke-width="1.871"/><path d="M285.88 249.39c-6.44-4.39-19.82-9.23-26.92-11.3h-.12a37.16 37.16 0 0 0 1-23.33l-28.08-91.38c2.63-5.23 9.13-16.59 16.94-18.84 0 0-13.28-8.46-18.61 2.14 0 0 3.24-9.86 7.71-9.68 0 0-8-2-14.07.27L215.61 71a36 36 0 0 0-7.06-13.36l11-17.76c-2.55-1.27-18.11 5.19-22.55 8.66a35.39 35.39 0 0 0-4.35-1.83c2.35-10.9-6.34-20.21-6.34-20.21a9.82 9.82 0 0 1-4.54 9.8c5.69-13.06-20.77-26-20.77-26a15.09 15.09 0 0 1-5.25 15c-8.78 7.43-5.19 13.92-5.19 13.92s-5.06-1.4-4.7-6.23a13.87 13.87 0 0 0-2.43 14.48 35.93 35.93 0 0 0-6 3.18l-.4-.77c-6.67-5.49-18.65-7.36-20.31-5l9.65 17.25a35.89 35.89 0 0 0-4.93 14l-4.76 25c-6.53-1.69-14.19 2.74-14.19 2.74 4.26-1.35 10 7.31 10 7.31C104.55 102.34 94 114 94 114c8.13.12 14.78 10.12 17.47 14.82L94.08 220A37.07 37.07 0 0 0 96 237.62h-.1c-5.7 1.36-19.52 6.5-27.61 11.72-4 2.56-1.52 8.37 3.47 8.27l40-.78c.68.42 1.37.81 2.07 1.18v.5c.06 3.49-1 6.35-4.48 6.52-2.33.12-4.22 1.49-4.59 3.16-.7 3.22.88 5.82 4.08 6.05l12.62.75a10.62 10.62 0 0 0 9.78-5.11 10.92 10.92 0 0 0 1.32-3.58l.75-4h79.87l.52 3.09a10.67 10.67 0 0 0 6.45 8.13 8 8 0 0 0 3.34.6l13.75-.46c3.3-.33 4.51-2.35 4.17-5.53-.11-1-.94-3.67-3.67-3.82-2.36-.13-3.78-1.29-4.2-3.28a37 37 0 0 0 9.79-4.2l39.14.76c4.92.17 7.31-5.54 3.41-8.2z" fill="none"/><g clip-path="url(#c)"><path d="M219.53 39.88s-2.12-3.39-11.7 6.71l-5.05 6.06 7.13 3.74z" style="mix-blend-mode:multiply" opacity=".4" fill="url(#a)"/><path d="M116.73 44.83s-.29-1.3 6.32 1.41a18.5 18.5 0 0 1 7.11 5.27l2.22 2.68-5.64 8.22z" style="mix-blend-mode:multiply" opacity=".4" fill="url(#e)"/><path d="M133.25 262.37c-.84-2.19.56-6.66 3.18-19.3 1.56-7.56 2.82-12.49 3.59-15.72 5.81-24.24 2.42-26.88 7.48-41.32 3.47-9.86 7.06-19.63 16.62-24.25 1.15-.55 9.87-4.6 18.71-1C191.46 164.2 195 172.8 198.6 182c4.36 11.1 3 14.93 7.94 42.7q1.54 8.67 3.09 17.34c.61 3.39 1.19 6.79 1.8 10.18 1.4 8 1.73 9.86 1.69 10.17z" fill="#fff"/><path d="M137.32 240.37l-6.14 29.56-4.18 4.17-6.61.88-11-1.11-3.64-.89-1.21-6.09 7.42-2.76 1.79-6.07-1.75-22.65s4 5.64 13.61 6.09 11.71-1.13 11.71-1.13zm99.03-2.84l-2.41 11-.29 13.17 8.07 5.17v6.5L225.89 275l-6.61-.88-4.19-4.17-6.15-29.56s5.15 4.86 14.71 3.7c9.88-1.22 12.7-6.56 12.7-6.56z" fill="#fff"/><path d="M96 237.62s1.88 10 15.71 19.26l-40.94.79-4.1-3.15v-3.26l9-5.94z" fill="#fff"/><path d="M96 237.62l-6 2.26c-1.16 7.53 8.06 17.3 8.06 17.3l13.62-.3c-6.33-3.56-10.55-8.57-15.68-19.26z" fill="#ded3c5"/><path d="M260.44 232.58s-4.38 18.42-20 25.91l49.92.6v-12z" fill="#fff"/><path d="M259 238.36l6 2.26c1.16 7.53-8.06 17.3-8.06 17.3l-13.62-.3c6.26-3.57 10.48-8.57 15.68-19.26z" fill="#ded3c5"/><path d="M258.23 238.36l6 2.26c1.15 7.53-8.07 17.3-8.07 17.3l-13.62-.3c6.31-3.57 10.52-8.57 15.69-19.26z" fill="#ded3c5"/></g><g clip-path="url(#c)" style="mix-blend-mode:multiply" opacity=".2"><path d="M140.06 226.14c-3.63 22.12 8.13 26.7 10.26 27.19 13 2.31 33.51 1.32 40.2-1 6.25-2.21 19.44-8.76 16.16-28.37l6.44 38.45h-79.87z" fill="#7f7f7f"/></g><g clip-path="url(#c)" style="mix-blend-mode:overlay" opacity=".2"><path d="M187.63 47.81S197 51 200.3 55.65s7.8 12.91 11 27.09c2.59 11.34 5.72 27.46 10.28 41.62 1.75 5.42 4.46 8.29 6.31 13.83 9.85 29.36 19.35 59.24 23.45 77.47 6.91 30.65-12.16 42.81-12.16 42.81l9.15-5.3S258 242 259.2 237.05c1.93-8 3.26-15.52-.38-25.49l-26.95-87.69s5.26-10.05 7.79-12.81c1.89-2 9-6.56 9-6.56s-6.32-4.25-12.32-3c-3.74.79-6.29 5.12-6.29 5.12s1.83-8.76 7.71-9.68c0 0-2.77-1.57-11.1-.82 0 0 3.52-6.17 3-13S224.48 68.79 213.78 66a26.4 26.4 0 0 0-5.42-8.16c-4.53-4.4-11.76-10-19.39-12.23z" fill="url(#h)"/></g><path fill="#fff" stroke="#31323d" stroke-linecap="round" stroke-miterlimit="10" stroke-width="1.871" d="M213.12 262.37h-79.87"/><path d="M236.82 236.4s-2.35 9.74 5.84 11.48c5.07 1.07 9.74-5.72 18.28-16.41 0 0-4.54 23.94-25.05 28l-1.74 1.18s-.9-18.1 2.67-24.25z" style="mix-blend-mode:soft-light" fill="#231f20"/><path d="M233.63 129.59l26.16 85.13a37.48 37.48 0 0 1-26.31 46.38" fill="none" stroke="#31323d" stroke-linecap="round" stroke-miterlimit="10" stroke-width="1.871"/><path d="M150.05 50c-12.2 3.54-20 17.34-24.2 35.87-1 4.33-1.89 9.46-2.75 15.1a42.43 42.43 0 0 0-.46 6.61c0 5.37.28 10.58.58 14.85.25 3.62-1.2 8-3.29 11.62a41.81 41.81 0 0 0-5.09 14.4v.19c-3 19.93-6.93 52.88-7.87 60.49a137 137 0 0 0-1 14.74v.5c3.52 3.89 7.13 13.29 7.88 26.47l-.07 6h-2c-7.14-2-15.81-19.21-15.81-19.21-2.69-11.17-2.13-15.22-1.44-19.52.86-5.3 5.45-28.63 9.87-51.87l7-36.75C104.37 113.28 94 114 94 114c14-12.14 18.52-2.82 18.52-2.82-2.21-4.61-8.73-7.74-8.73-7.74 7.54-4.16 12.94-2.31 12.94-2.31l5.36-28.38s2.7-18.74 24-26.32z" style="mix-blend-mode:soft-light" fill="#150300" opacity=".5"/><path d="M113.76 258.07a37.46 37.46 0 0 1-19.68-38l16-84" fill="none" stroke="#31323d" stroke-linecap="round" stroke-miterlimit="10" stroke-width="1.871"/><path d="M140.39 226.21c-1 9.12-2.8 18.11-4.46 27.11l-2.5 13.53a11.49 11.49 0 0 1-3.71 6.41 11.77 11.77 0 0 1-6.86 2.83 14.23 14.23 0 0 1-1.85 0l-1.71-.09-3.44-.2-6.86-.42a5.91 5.91 0 0 1-3.79-1.45 5.57 5.57 0 0 1-1.7-3.77 7.65 7.65 0 0 1 .15-2 4.32 4.32 0 0 1 1-2 6.23 6.23 0 0 1 3.53-2c.33-.06.66-.1 1-.13a6.88 6.88 0 0 0 .72-.08 3.05 3.05 0 0 0 1.22-.47 3.64 3.64 0 0 0 1.41-2.23 10.56 10.56 0 0 0 .27-3.12l-.15-3.43-.59-13.7v.07a41.3 41.3 0 0 0-1.85-8.71 27.61 27.61 0 0 0-4.28-7.79.33.33 0 0 1 .06-.47.34.34 0 0 1 .44 0 23.66 23.66 0 0 1 5.15 7.71 35 35 0 0 1 2.3 9v.08l.68 13.73.17 3.43a12.71 12.71 0 0 1-.3 3.7 5.65 5.65 0 0 1-2.23 3.4 5.1 5.1 0 0 1-2 .79c-.32.07-.69.08-1 .12a5.67 5.67 0 0 0-.72.09 4.18 4.18 0 0 0-2.35 1.31 2.13 2.13 0 0 0-.51 1.07 5.42 5.42 0 0 0-.11 1.44 3.49 3.49 0 0 0 1 2.34 3.8 3.8 0 0 0 2.51.88l6.86.39 3.42.22 1.72.11a14 14 0 0 0 1.58 0 9.64 9.64 0 0 0 5.64-2.28 9.47 9.47 0 0 0 3.09-5.24L134 253c1.73-9 3.34-18 5.71-26.89a.33.33 0 0 1 .65.13z" fill="#31323d"/><path d="M120.41 267.93a2.9 2.9 0 0 0-1.81.76 4.48 4.48 0 0 0-1.16 1.69c-.15.31-.24.66-.36 1s-.17.7-.22 1.06a17.69 17.69 0 0 0-.22 2.18.94.94 0 1 1-1.87-.11.53.53 0 0 1 0-.12 21.78 21.78 0 0 1 .55-2.36c.11-.39.28-.78.42-1.16a8.93 8.93 0 0 1 .57-1.11 4.46 4.46 0 0 1 4.18-2.52.33.33 0 0 1 0 .66zm-6.36-.7a3.53 3.53 0 0 0-1.77.9 4.83 4.83 0 0 0-1.15 1.69 8.43 8.43 0 0 0-.61 2c0 .36-.1.71-.14 1.06l-.06 1.08v.04a.94.94 0 1 1-1.87-.11v-.13l.23-1.18c.09-.39.22-.77.32-1.16a9.93 9.93 0 0 1 1-2.23 6.08 6.08 0 0 1 1.67-1.83 4.21 4.21 0 0 1 2.37-.82.33.33 0 0 1 .33.33.32.32 0 0 1-.28.33zM207 223.87q.92 3.91 1.69 7.85c.54 2.62 1 5.25 1.52 7.88.95 5.26 1.81 10.54 2.72 15.81l1.35 7.91.34 2a10.77 10.77 0 0 0 .47 1.75 9.83 9.83 0 0 0 1.87 3.08 9.7 9.7 0 0 0 2.86 2.19 7 7 0 0 0 3.38.82l8-.29 4-.12 2-.06a5.06 5.06 0 0 0 1.56-.41 2.7 2.7 0 0 0 1.58-2.33 7.07 7.07 0 0 0 0-1.72 4.24 4.24 0 0 0-.54-1.49 2.79 2.79 0 0 0-1-1 2.18 2.18 0 0 0-.66-.24 2.35 2.35 0 0 0-.37 0l-.53-.06a6.14 6.14 0 0 1-2.29-.68 4.75 4.75 0 0 1-1.79-1.77 8 8 0 0 1-.72-4.43l.08-4 .09-4a39.1 39.1 0 0 1 6.19-19.3 40.67 40.67 0 0 1 5-6.4.33.33 0 0 1 .47 0 .34.34 0 0 1 0 .45c-6.41 8.47-10.32 18.68-9.82 29.32l-.06 4v1a8.43 8.43 0 0 0 0 .88 3.93 3.93 0 0 0 .46 1.51 3.12 3.12 0 0 0 2.57 1.44h.47a4.66 4.66 0 0 1 1.84.53 4.74 4.74 0 0 1 1.81 1.74 6.29 6.29 0 0 1 .83 2.26 9.66 9.66 0 0 1 0 2.28 5.4 5.4 0 0 1-.82 2.32 4.61 4.61 0 0 1-1.93 1.66 7.19 7.19 0 0 1-2.3.61l-2 .08-4 .15-8.06.24a9.14 9.14 0 0 1-4.34-1.07 11.71 11.71 0 0 1-5.69-6.43 13 13 0 0 1-.56-2.12l-.32-2-1.3-7.92c-.86-5.28-1.76-10.55-2.57-15.83-.41-2.65-.79-5.29-1.13-8s-.69-5.31-1-8a.34.34 0 0 1 .3-.37.33.33 0 0 1 .35.28z" fill="#31323d"/><path d="M223.4 266.12a5.14 5.14 0 0 1 2.63.68 5.77 5.77 0 0 1 2 1.91 8.42 8.42 0 0 1 1 2.52c.09.44.18.89.25 1.33l.11 1.33a.94.94 0 1 1-1.87.16v-1.36l-.07-1.17a7 7 0 0 0-.62-2.18 4.5 4.5 0 0 0-1.4-1.72 4.31 4.31 0 0 0-2.1-.83.34.34 0 0 1-.3-.36.33.33 0 0 1 .37-.31zm7.6-.49a5 5 0 0 1 2.63.68 5.75 5.75 0 0 1 2 1.9 8.89 8.89 0 0 1 1.06 2.53c.08.44.17.88.24 1.33l.11 1.33a.93.93 0 0 1-.85 1 1 1 0 0 1-1-.86v-1.37l-.07-1.16a7.13 7.13 0 0 0-.61-2.19 4.7 4.7 0 0 0-1.41-1.72 4.44 4.44 0 0 0-2.09-.83H231a.33.33 0 0 1-.29-.37.32.32 0 0 1 .29-.27z" fill="#31323d"/><path d="M95.87 237.67c-5.7 1.36-19.52 6.5-27.61 11.72-4 2.56-1.52 8.37 3.47 8.27l42-.82" fill="none" stroke="#31323d" stroke-linecap="round" stroke-miterlimit="10" stroke-width="1.871"/><path d="M82.28 250.05a7.25 7.25 0 0 0-4 2.39 2.92 2.92 0 0 0-.54 2 4 4 0 0 0 .21 1.06c.11.35.3.7.44 1l.06.16a.94.94 0 0 1-1.74.7v-.09a13.73 13.73 0 0 1-.4-1.39 5.7 5.7 0 0 1-.11-1.49 4.4 4.4 0 0 1 1.12-2.78 6.49 6.49 0 0 1 2.33-1.57 10.27 10.27 0 0 1 2.61-.69.34.34 0 0 1 .12.66zm-7.11.3a4.11 4.11 0 0 0-3 2.42 3.69 3.69 0 0 0 0 1.87c.07.32.2.64.29 1l.44.94v.08a.94.94 0 1 1-1.7.8.61.61 0 0 1 0-.12l-.37-1.18c-.07-.42-.17-.83-.21-1.26a5 5 0 0 1 .43-2.58 4.18 4.18 0 0 1 1.77-1.85 6.26 6.26 0 0 1 2.32-.75.34.34 0 0 1 .12.66z" fill="#31323d"/><path d="M259 238.09c7.1 2.07 20.48 6.91 26.92 11.3 3.9 2.66 1.51 8.37-3.47 8.27l-39.16-.76" fill="none" stroke="#31323d" stroke-linecap="round" stroke-miterlimit="10" stroke-width="1.871"/><path d="M272 249.09a10.05 10.05 0 0 1 2.62.8 6.76 6.76 0 0 1 2.31 1.67 4.6 4.6 0 0 1 1.11 2.81 7 7 0 0 1-.51 2.93.92.92 0 0 1-1.18.59.94.94 0 0 1-.6-1.18v-.18a5.33 5.33 0 0 0 .64-2.14 3.09 3.09 0 0 0-.55-2.06 7.52 7.52 0 0 0-4.05-2.59.33.33 0 0 1-.22-.42.32.32 0 0 1 .43-.23zm7.07.3a6.4 6.4 0 0 1 2.32.87 4.5 4.5 0 0 1 1.75 1.93 5.17 5.17 0 0 1 .43 2.62 11 11 0 0 1-.2 1.28l-.37 1.21a.94.94 0 0 1-1.79-.56v-.11l.05-.09.44-1c.09-.32.23-.65.29-1a3.93 3.93 0 0 0 0-1.93 4.49 4.49 0 0 0-3-2.63.33.33 0 0 1 .15-.64z" fill="#31323d"/><path fill="none" stroke="#31323d" stroke-linecap="round" stroke-miterlimit="10" stroke-width="1.871" d="M231.87 123.87l8.93 29.05m-17.3-56.26L215.61 71a36.06 36.06 0 0 0-22.38-24.09l-4-1.33m-72.4 54.79l4.62-24.26a36.07 36.07 0 0 1 21.6-28.48l2.71-1.06m-37.83 100.61l3.36-17.65"/><path d="M112.23 131.43a51 51 0 0 0-3.39-5.61 44.64 44.64 0 0 0-4.1-5.08 24.17 24.17 0 0 0-5-4 11.62 11.62 0 0 0-5.74-1.81.94.94 0 0 1-1-.93 1 1 0 0 1 .24-.62 25.71 25.71 0 0 1 4.25-3.57 17.56 17.56 0 0 1 5.07-2.42 10.18 10.18 0 0 1 5.79 0 10.78 10.78 0 0 1 4.8 3.2l-1.48 1.14a30.08 30.08 0 0 0-1.9-2.51 25.82 25.82 0 0 0-2.16-2.27 11.14 11.14 0 0 0-2.43-1.75 3.28 3.28 0 0 0-2.43-.41.93.93 0 0 1-1.18-.59.94.94 0 0 1 .42-1.11 27.11 27.11 0 0 1 4.36-1.77 23.64 23.64 0 0 1 4.56-1 15.76 15.76 0 0 1 4.7.1 10.92 10.92 0 0 1 4.35 1.81.37.37 0 0 1-.42.62 9.8 9.8 0 0 0-4.08-1.41 14.84 14.84 0 0 0-4.36.17 23.19 23.19 0 0 0-4.23 1.21 27.61 27.61 0 0 0-4 1.89l-.75-1.7a5.12 5.12 0 0 1 3.85.52 12.94 12.94 0 0 1 2.84 2 25.6 25.6 0 0 1 2.33 2.45c.72.86 1.39 1.73 2 2.68a.94.94 0 0 1-1.46 1.16 9 9 0 0 0-4-2.66 8.23 8.23 0 0 0-4.74 0 15.87 15.87 0 0 0-4.53 2.17 24.72 24.72 0 0 0-3.91 3.28l-.5-1.55a13.38 13.38 0 0 1 6.68 2.21 25.5 25.5 0 0 1 5.16 4.48 44.85 44.85 0 0 1 4.07 5.37 53.3 53.3 0 0 1 3.29 5.86.52.52 0 0 1-.24.7.53.53 0 0 1-.69-.24zM230 125.78a55.19 55.19 0 0 1 3.07-6.62 57.91 57.91 0 0 1 3.9-6.19 36.75 36.75 0 0 1 4.92-5.53 17.34 17.34 0 0 1 6.52-3.89l-.26 1.79a23.66 23.66 0 0 0-4.63-2.11 15.92 15.92 0 0 0-4.91-.9 8.21 8.21 0 0 0-4.54 1.19 8.88 8.88 0 0 0-3.1 3.58 1 1 0 0 1-1.86-.79c.38-1.1.81-2.1 1.28-3.13a26 26 0 0 1 1.63-3 12.87 12.87 0 0 1 2.22-2.71 5.14 5.14 0 0 1 3.59-1.5l-.26 1.84a31.76 31.76 0 0 0-4.61-.84 27.35 27.35 0 0 0-4.7-.13 16.32 16.32 0 0 0-4.56.89 9.65 9.65 0 0 0-3.85 2.48.36.36 0 0 1-.52 0 .37.37 0 0 1 0-.51 10.49 10.49 0 0 1 4-2.94 17.73 17.73 0 0 1 4.83-1.25 28.22 28.22 0 0 1 5-.14 33.53 33.53 0 0 1 4.93.61.93.93 0 0 1-.23 1.84 3.29 3.29 0 0 0-2.23 1 11.08 11.08 0 0 0-1.86 2.34 25.1 25.1 0 0 0-1.47 2.76c-.43.95-.83 2-1.16 2.92l-1.87-.77a11 11 0 0 1 3.73-4.27 10.27 10.27 0 0 1 5.64-1.51 17.2 17.2 0 0 1 5.55 1 26 26 0 0 1 5.05 2.36 1 1 0 0 1 .32 1.36 1 1 0 0 1-.56.43 15.48 15.48 0 0 0-5.79 3.42 36.44 36.44 0 0 0-4.71 5.2 67.51 67.51 0 0 0-4 5.89c-1.24 2-2.42 4.12-3.52 6.22a.54.54 0 0 1-.71.22.53.53 0 0 1-.27-.61z" fill="#31323d"/><path d="M137 49.87c-6.67-5.49-18.65-7.36-20.31-5l9.65 17.25M197 48.54c4.42-3.47 20-9.93 22.51-8.66l-11 17.76" fill="none" stroke="#31323d" stroke-linecap="round" stroke-miterlimit="10" stroke-width="1.871"/><path d="M149.76 50.45a20.69 20.69 0 0 1-3.84-3.45 14.38 14.38 0 0 1-2.69-4.47 9.41 9.41 0 0 1-.35-5.31 11.73 11.73 0 0 1 2.42-4.72.76.76 0 0 1 1.06-.12.77.77 0 0 1 .28.59V33a4.64 4.64 0 0 0 1.07 3.38 5.83 5.83 0 0 0 1.41 1.2 7.59 7.59 0 0 0 1.69.79l-1 1.21a10.28 10.28 0 0 1 .26-8.7 20 20 0 0 1 5.35-6.59 14.65 14.65 0 0 0 4.3-6.29 14.13 14.13 0 0 0 .71-3.76 13.19 13.19 0 0 0-.31-3.75.94.94 0 0 1 .68-1.14 1 1 0 0 1 .65.08 75 75 0 0 1 7.89 4.66 56.17 56.17 0 0 1 7.21 5.69 26 26 0 0 1 5.7 7.4 12.64 12.64 0 0 1 1.29 4.68 10.61 10.61 0 0 1-.86 4.85l-1.34-1.22a9 9 0 0 0 1.92-1.63 8.72 8.72 0 0 0 1.42-2.15 9 9 0 0 0 .73-5.06v-.09a.92.92 0 0 1 1.64-.64 18.65 18.65 0 0 1 2.89 5.62 19.52 19.52 0 0 1 1 6.15 20.64 20.64 0 0 1-1 6.11 25.4 25.4 0 0 1-2.55 5.58.52.52 0 0 1-.72.18.54.54 0 0 1-.19-.71 24.8 24.8 0 0 0 2.26-5.4 19.23 19.23 0 0 0 .7-5.74 18 18 0 0 0-1.08-5.63 16.76 16.76 0 0 0-2.73-4.93l1.64-.73a11 11 0 0 1-.87 6.1 10.55 10.55 0 0 1-1.71 2.6 10.4 10.4 0 0 1-2.43 2A.94.94 0 0 1 180.9 36a9.35 9.35 0 0 0-.4-7.94 24.24 24.24 0 0 0-5.29-6.83 53.92 53.92 0 0 0-6.95-5.51 74.13 74.13 0 0 0-7.66-4.54l1.32-1.1a14.86 14.86 0 0 1 .38 4.37 15.89 15.89 0 0 1-.81 4.26 16.24 16.24 0 0 1-4.81 7.09 18.24 18.24 0 0 0-5 6 10 10 0 0 0-1 3.61 8.67 8.67 0 0 0 .09 1.84 6.21 6.21 0 0 0 .5 1.69V39a.83.83 0 0 1-.27 1 .86.86 0 0 1-.61 0 8.2 8.2 0 0 1-2.13-1 7.49 7.49 0 0 1-1.76-1.57 5.93 5.93 0 0 1-1.12-2.14 6.59 6.59 0 0 1-.22-2.37l1.33.54a10.27 10.27 0 0 0-2.22 4.08 8.1 8.1 0 0 0 .2 4.57 13.35 13.35 0 0 0 2.37 4.13 19.92 19.92 0 0 0 3.54 3.33.51.51 0 0 1 .11.73.52.52 0 0 1-.73.15z" fill="#31323d"/><path data-name="&lt;Clipping Path&gt;" d="M187 82.7c-1.6 12.07 6.67 21 18.75 22.63s23.37-4.78 25-16.85A22 22 0 1 0 187 82.7z" fill="#fff"/><g clip-path="url(#i)"><circle cx="208.62" cy="86.7" r="11.61" fill="#26edab"/><circle cx="208.62" cy="86.7" r="8.56" fill="#31323d"/><circle cx="211.78" cy="79.44" r="4.66" fill="#fff"/></g><path data-name="&lt;Clipping Path&gt;" d="M187 82.7c-1.6 12.07 6.67 21 18.75 22.63s23.37-4.78 25-16.85A22 22 0 1 0 187 82.7z" fill="none" stroke="#31323d" stroke-linecap="round" stroke-miterlimit="10" stroke-width="1.497"/><path d="M198.46 54.35c10.49-4.16 22.44-1.73 28.32 3.45" fill="none" stroke="#31323d" stroke-linecap="round" stroke-miterlimit="10" stroke-width="4.491"/><path data-name="&lt;Clipping Path&gt;" d="M151.2 86.75c1.44 10.91-7 17.73-17.87 19.17s-20.21-3-21.65-13.94a19.93 19.93 0 1 1 39.52-5.23z" fill="#fff"/><g clip-path="url(#j)"><circle cx="131.39" cy="90.06" r="10.98" fill="#26edab"/><circle cx="131.39" cy="90.06" r="8.1" fill="#31323d"/><circle cx="134.38" cy="83.2" r="4.41" fill="#fff"/></g><path data-name="&lt;Clipping Path&gt;" d="M151.2 86.75c1.44 10.91-7 17.73-17.87 19.17s-20.21-3-21.65-13.94a19.93 19.93 0 1 1 39.52-5.23z" fill="none" stroke="#31323d" stroke-linecap="round" stroke-miterlimit="10" stroke-width="1.497"/><path d="M110.94 71.68c9.67 1.69 17.28-.54 23.51-7.94" fill="none" stroke="#31323d" stroke-linecap="round" stroke-miterlimit="10" stroke-width="4.491"/><path d="M161.85 135.42s1.48 10.81 12.91 9.93a12 12 0 0 0 11.57-11.06 15.36 15.36 0 0 1-10.83 5.1c-7.16.4-13.65-3.97-13.65-3.97z" style="mix-blend-mode:multiply" fill="#595959" opacity=".2"/><path d="M161.8 100.43a2.26 2.26 0 0 1 .35-2.42c1.24-1.41 3.95-3.56 9.26-4s8 1.2 9.28 2.42a2.21 2.21 0 0 1 .56 2.37 3.11 3.11 0 0 1-2.58 2 6 6 0 0 0-4.69 2.75 2.18 2.18 0 0 1-.26.34 2.64 2.64 0 0 1-3.79.08s-1.23-1.77-5.27-1.77a3.11 3.11 0 0 1-2.8-1.81z" fill="#31323d"/><path d="M173.18 104.51c.06 1.67.1 3.36.2 5a18.58 18.58 0 0 0 .74 4.75 6 6 0 0 0 1.18 1.92 10.26 10.26 0 0 0 1.86 1.5c1.38.9 2.87 1.7 4.34 2.51a.25.25 0 0 1 .11.35.28.28 0 0 1-.34.12c-1.54-.69-3.09-1.34-4.6-2.16a11.88 11.88 0 0 1-2.19-1.48 7.36 7.36 0 0 1-1.64-2.22 20.38 20.38 0 0 1-1.27-5.1c-.25-1.69-.43-3.36-.63-5a1.14 1.14 0 0 1 1-1.25 1.13 1.13 0 0 1 1.25 1 .34.34 0 0 1 0 .1z" fill="#31323d"/><path d="M177.53 118.79c-5.26-2.63-10.52.4-10.52.4l3.11-2.66 2.15-3 2.37 2.83z" fill="#31323d"/><path d="M164.06 121c1.32-1.23 2.8-2.32 4.18-3.44a10.14 10.14 0 0 0 1.81-1.77 6.19 6.19 0 0 0 1-2.18 18.91 18.91 0 0 0 .26-5.13c0-.87-.12-1.77-.18-2.65l-.13-1.33a2.08 2.08 0 0 1 .28-1.36.91.91 0 0 1 1.26-.3.7.7 0 0 1 .22.2 2 2 0 0 1 .47 1.32v4.11a19.3 19.3 0 0 1-.71 5.58 7.57 7.57 0 0 1-1.46 2.59 11.88 11.88 0 0 1-2.21 1.79c-1.56 1-3.09 1.85-4.58 2.86a.18.18 0 0 1-.24 0 .18.18 0 0 1 .03-.29zm22.65 12.83a9.72 9.72 0 0 1-4.93 5.57 16.4 16.4 0 0 1-7.28 1.81 18.89 18.89 0 0 1-7.33-1.39 13.52 13.52 0 0 1-5.88-4.45.37.37 0 0 1 .09-.52.38.38 0 0 1 .46 0 17.16 17.16 0 0 0 6 3.18 21.75 21.75 0 0 0 6.64.93 18.34 18.34 0 0 0 6.48-1.34 11 11 0 0 0 5.1-4.11.37.37 0 0 1 .67.31zm.7-25.83a81.57 81.57 0 0 1 13.59-1.61 68.77 68.77 0 0 1 13.6.82 45.6 45.6 0 0 1 13 4.07 31.6 31.6 0 0 1 10.5 8.45 31.17 31.17 0 0 0-10.67-8.11 44.7 44.7 0 0 0-12.9-3.67 68.54 68.54 0 0 0-13.43-.44 79.9 79.9 0 0 0-13.28 1.92.75.75 0 1 1-.34-1.46zm25.89-7.41a76.36 76.36 0 0 0-22.62 4.13.74.74 0 1 1-.48-1.41 77 77 0 0 1 23.1-2.72zm-23.84 10.85a18.82 18.82 0 0 1 7 .13 23.58 23.58 0 0 1 6.42 2.57 33.45 33.45 0 0 1 5.48 4.1 35.89 35.89 0 0 1 4.59 5 35.53 35.53 0 0 0-4.83-4.75 33.12 33.12 0 0 0-5.6-3.74 23.33 23.33 0 0 0-6.27-2.12 17.68 17.68 0 0 0-6.49.23h-.05a.75.75 0 1 1-.31-1.46zm-31.46.29c-4.49-.89-8.95-1.76-13.46-2.28a74.39 74.39 0 0 0-13.64-.45 40.31 40.31 0 0 0-13.23 2.91 26.05 26.05 0 0 0-10.73 8.19 26.28 26.28 0 0 1 10.58-8.54 41.06 41.06 0 0 1 13.32-3.31 76.19 76.19 0 0 1 13.76.09c4.58.4 9.12 1.16 13.61 1.93a.75.75 0 1 1-.25 1.47zm-26.21-8.79a40.47 40.47 0 0 1 23.5 2.82.75.75 0 0 1 .39 1 .76.76 0 0 1-1 .39 39.74 39.74 0 0 0-22.89-4.21zM156 115.28a14.33 14.33 0 0 0-3.2-.5 14.94 14.94 0 0 0-3.26.3 20.12 20.12 0 0 0-6.16 2.52 33 33 0 0 0-5.4 4.1 40 40 0 0 0-4.6 5 40 40 0 0 1 4.34-5.3A33 33 0 0 1 143 117a21.15 21.15 0 0 1 6.31-3 14.49 14.49 0 0 1 7.09-.16.75.75 0 0 1-.31 1.47H156z" fill="#31323d"/><path d="M314.78 59.85l-4.49 6.22a5.75 5.75 0 0 1-8.29 1.19 5.91 5.91 0 0 1-1.48-8.2l7.18-10c.07-.1.17 0 .23-.12s0-.17 0-.27a6.07 6.07 0 0 1 8.25-1.18C322.52 52 331 50.9 335.32 45s2.67-14.38-3.59-18.89a13.59 13.59 0 0 0-13.33-1.6 6.18 6.18 0 0 1-8-3.15 5.63 5.63 0 0 1 2.94-7.63 25.83 25.83 0 0 1 25.15 3C350 25 353 40.79 345 51.9c-6.88 9.49-19.46 12.5-30.22 7.95zm-15.12 21l-1.24 1.72a5.76 5.76 0 0 1-8.25 1.19 5.9 5.9 0 0 1-1.49-8.2l1.25-1.73a6 6 0 0 1 8.25-1.19 5.84 5.84 0 0 1 1.48 8.19zm-270.11.89l2.54 4.45a4 4 0 0 1-1.8 5.47 4.1 4.1 0 0 1-5.63-1.23l-4.06-7.12v-.18c0-.07-.12 0-.16-.09a4.2 4.2 0 0 1 1.8-5.47C27 74.84 28.93 69.21 26.51 65s-8.24-5.46-13-2.73a9.9 9.9 0 0 0-5.13 7.92 4.56 4.56 0 0 1-4.45 4.17A3.63 3.63 0 0 1 0 70.48a18.72 18.72 0 0 1 9.66-15c8.79-5 19.66-2.7 24.19 5.24 3.88 6.82 1.89 15.49-4.3 21.02zm8.56 15l.7 1.24a4 4 0 0 1-1.8 5.47 4.1 4.1 0 0 1-5.63-1.23l-.7-1.23a4.15 4.15 0 0 1 1.8-5.48 4 4 0 0 1 5.63 1.21zm27.62-59.55l.27 1.06a2.92 2.92 0 0 1-2.3 3.55 3 3 0 0 1-3.54-2.26l-.24-1.07a3 3 0 0 1 2.26-3.54 2.94 2.94 0 0 1 3.55 2.26zm-2.88-13l.86 3.86a2.91 2.91 0 0 1-2.26 3.55 3 3 0 0 1-3.55-2.27l-1.37-6.16v-.13c0-.06-.07-.05-.08-.11a3.07 3.07 0 0 1 2.26-3.55A6.8 6.8 0 1 0 55.8 6.12a6.67 6.67 0 0 0-5 4.52 3 3 0 0 1-3.8 2 3 3 0 0 1-1.89-3.75A12.76 12.76 0 1 1 62.85 24.2z"/></g></g></svg>